<svg xmlns="http://www.w3.org/2000/svg" style="background: rgba(29, 14, 11, 0);" preserveAspectRatio="xMidYMid" viewBox="186.31 55.4 127.37 39.21"><defs><filter id="editing-vr"><feFlood flood-color="#c12d2d" flood-opacity="0.7" result="c1"/><feFlood flood-color="#ffffff" flood-opacity="0.7" result="c3"/><feComposite operator="in" in="c1" in2="SourceAlpha" result="text-c1"/><feComposite operator="in" in="c3" in2="SourceAlpha" result="text-c3"/><feOffset in="text-c1" dx="2" dy="-1" result="text1"/><feOffset in="text-c3" dx="-2" dy="1" result="text3"/><feBlend in="SourceGraphic" in2="text1" mode="multiply" result="text4"/><feBlend in="text4" in2="text3" mode="multiply"/></filter></defs><g filter="url(#editing-vr)"><g transform="translate(185.22497951984406, 94.60499572753906)"><path d="M39.57-39.21L39.57-32.10L23.90-32.10L23.90 0L16.79 0L16.79-32.10L1.09-32.10L1.09-39.21L39.57-39.21ZM83.97-30.57L83.97-26.03L83.97-26.03Q83.97-23.60 83.37-21.68L83.37-21.68L83.37-21.68Q82.77-19.77 81.74-18.31L81.74-18.31L81.74-18.31Q80.72-16.84 79.38-15.80L79.38-15.80L79.38-15.80Q78.04-14.77 76.58-14.10L76.58-14.10L76.58-14.10Q75.11-13.43 73.62-13.13L73.62-13.13L73.62-13.13Q72.13-12.82 70.82-12.82L70.82-12.82L85.67 0L74.68 0L59.86-12.82L54.74-12.82L54.74-19.93L70.82-19.93L70.82-19.93Q72.16-20.04 73.27-20.49L73.27-20.49L73.27-20.49Q74.38-20.95 75.18-21.71L75.18-21.71L75.18-21.71Q75.99-22.48 76.43-23.56L76.43-23.56L76.43-23.56Q76.86-24.64 76.86-26.03L76.86-26.03L76.86-30.52L76.86-30.52Q76.86-31.12 76.71-31.43L76.71-31.43L76.71-31.43Q76.56-31.75 76.33-31.90L76.33-31.90L76.33-31.90Q76.10-32.05 75.84-32.07L75.84-32.07L75.84-32.07Q75.58-32.10 75.36-32.10L75.36-32.10L51.90-32.10L51.90 0L44.79 0L44.79-35.63L44.79-35.63Q44.79-36.37 45.06-37.02L45.06-37.02L45.06-37.02Q45.34-37.68 45.81-38.17L45.81-38.17L45.81-38.17Q46.29-38.66 46.95-38.94L46.95-38.94L46.95-38.94Q47.61-39.21 48.37-39.21L48.37-39.21L75.36-39.21L75.36-39.21Q77.74-39.21 79.38-38.35L79.38-38.35L79.38-38.35Q81.02-37.49 82.04-36.19L82.04-36.19L82.04-36.19Q83.07-34.89 83.52-33.39L83.52-33.39L83.52-33.39Q83.97-31.88 83.97-30.57L83.97-30.57ZM128.46-39.21L128.46-26.09L128.46-26.09Q128.46-23.65 127.85-21.74L127.85-21.74L127.85-21.74Q127.23-19.82 126.22-18.36L126.22-18.36L126.22-18.36Q125.21-16.90 123.85-15.86L123.85-15.86L123.85-15.86Q122.50-14.82 121.05-14.15L121.05-14.15L121.05-14.15Q119.60-13.48 118.11-13.18L118.11-13.18L118.11-13.18Q116.62-12.88 115.31-12.88L115.31-12.88L112.44-12.88L112.44 0L105.27 0L105.27-12.88L102.43-12.88L102.43-12.88Q101.12-12.88 99.63-13.18L99.63-13.18L99.63-13.18Q98.14-13.48 96.67-14.15L96.67-14.15L96.67-14.15Q95.21-14.82 93.87-15.86L93.87-15.86L93.87-15.86Q92.53-16.90 91.51-18.36L91.51-18.36L91.51-18.36Q90.48-19.82 89.87-21.75L89.87-21.75L89.87-21.75Q89.25-23.68 89.25-26.09L89.25-26.09L89.25-39.21L96.36-39.21L96.36-26.09L96.36-26.09Q96.36-24.69 96.80-23.58L96.80-23.58L96.80-23.58Q97.23-22.48 98.03-21.68L98.03-21.68L98.03-21.68Q98.82-20.89 99.96-20.47L99.96-20.47L99.96-20.47Q101.09-20.04 102.48-20.04L102.48-20.04L115.31-20.04L115.31-20.04Q116.32-20.21 117.39-20.47L117.39-20.47L117.39-20.47Q118.45-20.73 119.33-21.36L119.33-21.36L119.33-21.36Q120.20-21.98 120.78-23.11L120.78-23.11L120.78-23.11Q121.35-24.23 121.35-26.09L121.35-26.09L121.35-39.21L128.46-39.21Z" fill="#d41e1e"/></g></g><style>text {
  font-size: 64px;
  font-family: Arial Black;
  dominant-baseline: central;
  text-anchor: middle;
}</style></svg>