<svg xmlns="http://www.w3.org/2000/svg" style="background: rgba(29, 14, 11, 0);" preserveAspectRatio="xMidYMid" viewBox="45.1 60.39 409.8 54.87"><defs><filter id="editing-vr"><feFlood flood-color="#c12d2d" flood-opacity="0.7" result="c1"/><feFlood flood-color="#ffffff" flood-opacity="0.7" result="c3"/><feComposite operator="in" in="c1" in2="SourceAlpha" result="text-c1"/><feComposite operator="in" in="c3" in2="SourceAlpha" result="text-c3"/><feOffset in="text-c1" dx="2" dy="-1" result="text1"/><feOffset in="text-c3" dx="-2" dy="1" result="text3"/><feBlend in="SourceGraphic" in2="text1" mode="multiply" result="text4"/><feBlend in="text4" in2="text3" mode="multiply"/></filter></defs><g filter="url(#editing-vr)"><g transform="translate(43.72997176647186, 102.43499565124512)"><path d="M30.21-29.56L30.21-22.45L17.80-22.45L17.80 0L10.61 0L10.61-22.45L1.37-22.45L1.37-29.56L10.61-29.56L10.61-39.21L17.80-39.21L17.80-29.56L30.21-29.56ZM60.59-29.56L60.59-22.45L44.60-22.45L44.60-22.45Q43.15-22.45 42.41-21.72L42.41-21.72L42.41-21.72Q41.67-21 41.67-19.61L41.67-19.61L41.67 0L34.56 0L34.56-19.61L34.56-19.61Q34.56-21.44 35.03-22.89L35.03-22.89L35.03-22.89Q35.49-24.34 36.27-25.44L36.27-25.44L36.27-25.44Q37.05-26.55 38.06-27.33L38.06-27.33L38.06-27.33Q39.07-28.11 40.18-28.60L40.18-28.60L40.18-28.60Q41.29-29.09 42.42-29.33L42.42-29.33L42.42-29.33Q43.56-29.56 44.54-29.56L44.54-29.56L60.59-29.56ZM97.86-29.56L97.86 2.84L97.86 2.84Q97.86 4.68 97.40 6.14L97.40 6.14L97.40 6.14Q96.93 7.60 96.17 8.71L96.17 8.71L96.17 8.71Q95.40 9.82 94.39 10.60L94.39 10.60L94.39 10.60Q93.38 11.38 92.27 11.87L92.27 11.87L92.27 11.87Q91.16 12.36 90.04 12.59L90.04 12.59L90.04 12.59Q88.92 12.82 87.91 12.82L87.91 12.82L75.09 12.82L75.09 5.71L87.91 5.71L87.91 5.71Q89.33 5.71 90.04 4.98L90.04 4.98L90.04 4.98Q90.75 4.24 90.75 2.84L90.75 2.84L90.75-29.56L97.86-29.56ZM87.91-7.11L87.91 0L75.09 0L75.09 0Q73.55 0 71.82-0.52L71.82-0.52L71.82-0.52Q70.08-1.04 68.58-2.23L68.58-2.23L68.58-2.23Q67.07-3.42 66.09-5.32L66.09-5.32L66.09-5.32Q65.11-7.22 65.11-9.98L65.11-9.98L65.11-29.56L72.21-29.56L72.21-9.98L72.21-9.98Q72.21-8.59 72.95-7.85L72.95-7.85L72.95-7.85Q73.69-7.11 75.14-7.11L75.14-7.11L87.91-7.11ZM136.80-19.61L136.80-9.98L136.80-9.98Q136.80-8.15 136.34-6.69L136.34-6.69L136.34-6.69Q135.87-5.22 135.11-4.12L135.11-4.12L135.11-4.12Q134.34-3.01 133.33-2.23L133.33-2.23L133.33-2.23Q132.32-1.45 131.21-0.96L131.21-0.96L131.21-0.96Q130.10-0.46 128.97-0.23L128.97-0.23L128.97-0.23Q127.83 0 126.82 0L126.82 0L114.00 0L114.00 0Q112.52 0 110.77-0.52L110.77-0.52L110.77-0.52Q109.02-1.04 107.53-2.23L107.53-2.23L107.53-2.23Q106.04-3.42 105.04-5.32L105.04-5.32L105.04-5.32Q104.04-7.22 104.04-9.98L104.04-9.98L104.04-19.61L104.04-19.61Q104.04-22.34 105.04-24.24L105.04-24.24L105.04-24.24Q106.04-26.14 107.53-27.33L107.53-27.33L107.53-27.33Q109.02-28.52 110.77-29.04L110.77-29.04L110.77-29.04Q112.52-29.56 114.00-29.56L114.00-29.56L126.82-29.56L126.82-29.56Q129.55-29.56 131.47-28.57L131.47-28.57L131.47-28.57Q133.38-27.59 134.56-26.10L134.56-26.10L134.56-26.10Q135.73-24.61 136.27-22.86L136.27-22.86L136.27-22.86Q136.80-21.11 136.80-19.61L136.80-19.61ZM129.69-9.98L129.69-19.55L129.69-19.55Q129.69-21.03 128.95-21.74L128.95-21.74L128.95-21.74Q128.21-22.45 126.82-22.45L126.82-22.45L114.05-22.45L114.05-22.45Q112.63-22.45 111.89-21.72L111.89-21.72L111.89-21.72Q111.15-21 111.15-19.61L111.15-19.61L111.15-9.98L111.15-9.98Q111.15-8.59 111.89-7.85L111.89-7.85L111.89-7.85Q112.63-7.11 114.05-7.11L114.05-7.11L126.82-7.11L126.82-7.11Q128.27-7.11 128.98-7.85L128.98-7.85L128.98-7.85Q129.69-8.59 129.69-9.98L129.69-9.98ZM175.16-29.56L175.16-3.58L175.16-3.58Q175.16-2.82 174.89-2.16L174.89-2.16L174.89-2.16Q174.62-1.50 174.14-1.03L174.14-1.03L174.14-1.03Q173.66-0.55 173.02-0.27L173.02-0.27L173.02-0.27Q172.38 0 171.64 0L171.64 0L155.56 0L155.56 0Q154.25 0 152.76-0.30L152.76-0.30L152.76-0.30Q151.27-0.60 149.82-1.27L149.82-1.27L149.82-1.27Q148.37-1.94 147.01-2.97L147.01-2.97L147.01-2.97Q145.66-3.99 144.65-5.46L144.65-5.46L144.65-5.46Q143.64-6.92 143.02-8.83L143.02-8.83L143.02-8.83Q142.41-10.75 142.41-13.15L142.41-13.15L142.41-29.56L149.52-29.56L149.52-13.15L149.52-13.15Q149.52-11.76 149.99-10.65L149.99-10.65L149.99-10.65Q150.47-9.54 151.29-8.75L151.29-8.75L151.29-8.75Q152.11-7.96 153.22-7.53L153.22-7.53L153.22-7.53Q154.33-7.11 155.61-7.11L155.61-7.11L168.05-7.11L168.05-29.56L175.16-29.56ZM208.71-29.56L208.71-22.45L196.30-22.45L196.30 0L189.11 0L189.11-22.45L179.87-22.45L179.87-29.56L189.11-29.56L189.11-39.21L196.30-39.21L196.30-29.56L208.71-29.56ZM263.76-19.61L263.76-9.98L263.76-9.98Q263.76-8.15 263.29-6.69L263.29-6.69L263.29-6.69Q262.83-5.22 262.06-4.12L262.06-4.12L262.06-4.12Q261.30-3.01 260.29-2.23L260.29-2.23L260.29-2.23Q259.27-1.45 258.17-0.96L258.17-0.96L258.17-0.96Q257.06-0.46 255.92-0.23L255.92-0.23L255.92-0.23Q254.79 0 253.78 0L253.78 0L240.95 0L240.95 0Q239.48 0 237.73-0.52L237.73-0.52L237.73-0.52Q235.98-1.04 234.49-2.23L234.49-2.23L234.49-2.23Q233.00-3.42 232.00-5.32L232.00-5.32L232.00-5.32Q231-7.22 231-9.98L231-9.98L231-19.61L231-19.61Q231-22.34 232.00-24.24L232.00-24.24L232.00-24.24Q233.00-26.14 234.49-27.33L234.49-27.33L234.49-27.33Q235.98-28.52 237.73-29.04L237.73-29.04L237.73-29.04Q239.48-29.56 240.95-29.56L240.95-29.56L253.78-29.56L253.78-29.56Q256.51-29.56 258.43-28.57L258.43-28.57L258.43-28.57Q260.34-27.59 261.52-26.10L261.52-26.10L261.52-26.10Q262.69-24.61 263.22-22.86L263.22-22.86L263.22-22.86Q263.76-21.11 263.76-19.61L263.76-19.61ZM256.65-9.98L256.65-19.55L256.65-19.55Q256.65-21.03 255.91-21.74L255.91-21.74L255.91-21.74Q255.17-22.45 253.78-22.45L253.78-22.45L241.01-22.45L241.01-22.45Q239.59-22.45 238.85-21.72L238.85-21.72L238.85-21.72Q238.11-21 238.11-19.61L238.11-19.61L238.11-9.98L238.11-9.98Q238.11-8.59 238.85-7.85L238.85-7.85L238.85-7.85Q239.59-7.11 241.01-7.11L241.01-7.11L253.78-7.11L253.78-7.11Q255.23-7.11 255.94-7.85L255.94-7.85L255.94-7.85Q256.65-8.59 256.65-9.98L256.65-9.98ZM302.56-16.41L302.56 0L295.45 0L295.45-16.41L295.45-16.41Q295.45-17.80 294.97-18.91L294.97-18.91L294.97-18.91Q294.49-20.02 293.67-20.81L293.67-20.81L293.67-20.81Q292.85-21.60 291.74-22.03L291.74-22.03L291.74-22.03Q290.64-22.45 289.35-22.45L289.35-22.45L276.91-22.45L276.91 0L269.80 0L269.80-26.03L269.80-26.03Q269.80-26.77 270.07-27.41L270.07-27.41L270.07-27.41Q270.35-28.05 270.84-28.53L270.84-28.53L270.84-28.53Q271.33-29.01 271.99-29.29L271.99-29.29L271.99-29.29Q272.64-29.56 273.38-29.56L273.38-29.56L289.41-29.56L289.41-29.56Q290.75-29.56 292.24-29.26L292.24-29.26L292.24-29.26Q293.73-28.96 295.19-28.29L295.19-28.29L295.19-28.29Q296.65-27.62 297.98-26.59L297.98-26.59L297.98-26.59Q299.30-25.57 300.33-24.10L300.33-24.10L300.33-24.10Q301.36-22.64 301.96-20.73L301.96-20.73L301.96-20.73Q302.56-18.81 302.56-16.41L302.56-16.41ZM321.78-7.11L321.78 0L318.61 0L318.61 0Q317.08 0 315.34-0.52L315.34-0.52L315.34-0.52Q313.61-1.04 312.10-2.23L312.10-2.23L312.10-2.23Q310.60-3.42 309.61-5.32L309.61-5.32L309.61-5.32Q308.63-7.22 308.63-9.98L308.63-9.98L308.63-42.05L315.74-42.05L315.74-9.98L315.74-9.98Q315.74-8.67 316.56-7.89L316.56-7.89L316.56-7.89Q317.38-7.11 318.61-7.11L318.61-7.11L321.78-7.11ZM333.57-42.05L333.57-35.63L326.46-35.63L326.46-42.05L333.57-42.05ZM333.57-29.56L333.57 0L326.46 0L326.46-29.56L333.57-29.56ZM373.13-16.41L373.13 0L366.02 0L366.02-16.41L366.02-16.41Q366.02-17.80 365.54-18.91L365.54-18.91L365.54-18.91Q365.07-20.02 364.25-20.81L364.25-20.81L364.25-20.81Q363.43-21.60 362.32-22.03L362.32-22.03L362.32-22.03Q361.21-22.45 359.93-22.45L359.93-22.45L347.48-22.45L347.48 0L340.38 0L340.38-26.03L340.38-26.03Q340.38-26.77 340.65-27.41L340.65-27.41L340.65-27.41Q340.92-28.05 341.41-28.53L341.41-28.53L341.41-28.53Q341.91-29.01 342.56-29.29L342.56-29.29L342.56-29.29Q343.22-29.56 343.96-29.56L343.96-29.56L359.98-29.56L359.98-29.56Q361.32-29.56 362.81-29.26L362.81-29.26L362.81-29.26Q364.30-28.96 365.76-28.29L365.76-28.29L365.76-28.29Q367.23-27.62 368.55-26.59L368.55-26.59L368.55-26.59Q369.88-25.57 370.90-24.10L370.90-24.10L370.90-24.10Q371.93-22.64 372.53-20.73L372.53-20.73L372.53-20.73Q373.13-18.81 373.13-16.41L373.13-16.41ZM411.17-19.77L411.17-19.77L411.17-19.77Q411.17-18.29 410.65-16.58L410.65-16.58L410.65-16.58Q410.13-14.88 408.97-13.41L408.97-13.41L408.97-13.41Q407.80-11.95 405.93-10.96L405.93-10.96L405.93-10.96Q404.06-9.98 401.38-9.98L401.38-9.98L388.55-9.98L388.55-16.73L401.38-16.73L401.38-16.73Q402.83-16.73 403.62-17.62L403.62-17.62L403.62-17.62Q404.41-18.51 404.41-19.82L404.41-19.82L404.41-19.82Q404.41-21.22 403.53-22.01L403.53-22.01L403.53-22.01Q402.64-22.80 401.38-22.80L401.38-22.80L388.55-22.80L388.55-22.80Q387.11-22.80 386.31-21.92L386.31-21.92L386.31-21.92Q385.52-21.03 385.52-19.71L385.52-19.71L385.52-9.79L385.52-9.79Q385.52-8.37 386.41-7.57L386.41-7.57L386.41-7.57Q387.30-6.78 388.61-6.78L388.61-6.78L401.38-6.78L401.38 0L388.55 0L388.55 0Q387.08 0 385.37-0.52L385.37-0.52L385.37-0.52Q383.66-1.04 382.20-2.20L382.20-2.20L382.20-2.20Q380.73-3.36 379.75-5.24L379.75-5.24L379.75-5.24Q378.77-7.11 378.77-9.79L378.77-9.79L378.77-19.77L378.77-19.77Q378.77-21.25 379.29-22.96L379.29-22.96L379.29-22.96Q379.80-24.66 380.97-26.13L380.97-26.13L380.97-26.13Q382.13-27.59 384.00-28.57L384.00-28.57L384.00-28.57Q385.88-29.56 388.55-29.56L388.55-29.56L401.38-29.56L401.38-29.56Q402.86-29.56 404.56-29.04L404.56-29.04L404.56-29.04Q406.27-28.52 407.74-27.36L407.74-27.36L407.74-27.36Q409.20-26.20 410.18-24.32L410.18-24.32L410.18-24.32Q411.17-22.45 411.17-19.77Z" fill="#d41e1e"/></g></g><style>text {
  font-size: 64px;
  font-family: Arial Black;
  dominant-baseline: central;
  text-anchor: middle;
}</style></svg>